<svg xmlns="http://www.w3.org/2000/svg" xmlns:xlink="http://www.w3.org/1999/xlink" version="1.1" width="1000" height="1000" viewBox="0 0 1000 1000" xml:space="preserve">
<desc>Created with Fabric.js 3.5.0</desc>
<defs>
</defs>
<rect x="0" y="0" width="100%" height="100%" fill="rgba(255,255,255,0)"/>
<g transform="matrix(1.3214 0 0 1.3214 500.0161 500.0021)" id="705621">
<g style="" vector-effect="non-scaling-stroke">
		<g transform="matrix(4.1812 0 0 4.1812 61.1983 0.0001)" id="ddf511e2-b3f0-4242-9d38-6068d85f6fba">
<path style="stroke: none; stroke-width: 1; stroke-dasharray: none; stroke-linecap: butt; stroke-dashoffset: 0; stroke-linejoin: miter; stroke-miterlimit: 4; is-custom-font: none; font-file-url: none; fill: rgb(255,255,255); fill-rule: nonzero; opacity: 1;" transform=" translate(-67.755, -8.855)" d="M 6.23 8.89 L 9.02 8.89 C 8.62 10.38 7.56 11.13 5.81 11.13 C 4.83 11.13 4 10.81 3.33 10.16 C 2.65 9.51 2.31 8.69 2.31 7.7 C 2.31 6.71 2.65 5.89 3.33 5.24 C 4 4.59 4.83 4.27 5.81 4.27 C 6.45 4.27 7.05 4.39 7.61 4.64 C 8.16 4.89 8.59 5.26 8.88 5.75 L 10.15 4.55 C 9.31 3.2 7.86 2.52 5.81 2.52 C 4.23 2.52 2.93 3 1.9 3.97 C 0.87 4.93 0.35 6.18 0.35 7.7 C 0.35 9.22 0.87 10.46 1.9 11.43 C 2.93 12.4 4.23 12.88 5.81 12.88 C 7.43 12.88 8.7 12.4 9.62 11.44 C 10.53 10.48 10.99 9.18 10.99 7.56 L 10.99 7.14 L 6.23 7.14 Z M 12.68 8.15 C 12.88 8.01 13.18 7.87 13.59 7.73 C 13.99 7.59 14.4 7.52 14.81 7.52 C 15.67 7.52 16.1 7.8 16.1 8.37 L 16.1 9.02 C 15.58 8.75 14.91 8.61 14.08 8.61 C 13.81 8.61 13.54 8.65 13.27 8.72 C 12.99 8.8 12.72 8.91 12.45 9.07 C 12.19 9.23 11.97 9.46 11.8 9.75 C 11.63 10.04 11.55 10.39 11.55 10.78 C 11.55 11.41 11.78 11.89 12.23 12.23 C 12.68 12.57 13.31 12.74 14.11 12.74 C 15.09 12.74 15.75 12.41 16.1 11.75 L 16.1 12.6 L 17.99 12.6 L 17.99 7.98 C 17.99 7.31 17.71 6.8 17.14 6.46 C 16.57 6.12 15.79 5.95 14.81 5.95 C 14.29 5.95 13.79 6.04 13.31 6.22 C 12.83 6.39 12.44 6.59 12.14 6.8 Z M 13.45 10.58 C 13.45 10.08 13.92 9.83 14.84 9.83 C 15.32 9.83 15.74 9.9 16.1 10.04 L 16.1 10.08 C 16.1 10.51 15.96 10.82 15.67 11.03 C 15.38 11.23 15 11.33 14.53 11.33 C 14.21 11.33 13.94 11.26 13.75 11.13 C 13.55 11 13.45 10.82 13.45 10.58 Z M 19.88 3.92 L 19.88 6.16 L 18.83 6.16 L 18.83 7.77 L 19.88 7.77 L 19.88 12.6 L 21.77 12.6 L 21.77 7.77 L 22.82 7.77 L 22.82 6.16 L 21.77 6.16 L 21.77 3.92 Z M 28.18 8.62 L 25.06 8.62 C 25.13 8.22 25.33 7.91 25.65 7.69 C 25.97 7.46 26.32 7.35 26.71 7.35 C 27.57 7.35 28.06 7.77 28.18 8.62 Z M 25.05 9.87 L 30.14 9.87 C 30.16 9.69 30.17 9.49 30.17 9.25 C 30.17 8.25 29.86 7.44 29.23 6.85 C 28.61 6.25 27.77 5.95 26.71 5.95 C 25.64 5.95 24.77 6.27 24.1 6.92 C 23.43 7.57 23.1 8.39 23.1 9.38 C 23.1 10.38 23.42 11.19 24.06 11.81 C 24.7 12.43 25.58 12.74 26.71 12.74 C 28.35 12.74 29.47 12.1 30.09 10.82 L 28.29 10.42 C 28 10.99 27.48 11.27 26.71 11.27 C 25.76 11.27 25.2 10.8 25.05 9.87 Z M 31.36 2.8 L 31.36 12.6 L 33.32 12.6 L 33.32 8.02 L 37.24 12.6 L 39.7 12.6 L 35.25 7.39 L 39.49 2.8 L 37.17 2.8 L 33.32 6.97 L 33.32 2.8 Z M 44.65 8.62 L 41.52 8.62 C 41.6 8.22 41.79 7.91 42.11 7.69 C 42.43 7.46 42.78 7.35 43.18 7.35 C 44.03 7.35 44.52 7.77 44.65 8.62 Z M 41.51 9.87 L 46.61 9.87 C 46.62 9.69 46.63 9.49 46.63 9.25 C 46.63 8.25 46.32 7.44 45.7 6.85 C 45.07 6.25 44.23 5.95 43.18 5.95 C 42.1 5.95 41.23 6.27 40.56 6.92 C 39.9 7.57 39.56 8.39 39.56 9.38 C 39.56 10.38 39.88 11.19 40.52 11.81 C 41.16 12.43 42.05 12.74 43.18 12.74 C 44.81 12.74 45.93 12.1 46.55 10.82 L 44.76 10.42 C 44.47 10.99 43.94 11.27 43.18 11.27 C 42.22 11.27 41.67 10.8 41.51 9.87 Z M 52.28 8.62 L 49.15 8.62 C 49.23 8.22 49.42 7.91 49.74 7.69 C 50.06 7.46 50.41 7.35 50.81 7.35 C 51.66 7.35 52.15 7.77 52.28 8.62 Z M 49.14 9.87 L 54.24 9.87 C 54.25 9.69 54.26 9.49 54.26 9.25 C 54.26 8.25 53.95 7.44 53.33 6.85 C 52.7 6.25 51.86 5.95 50.81 5.95 C 49.73 5.95 48.86 6.27 48.2 6.92 C 47.53 7.57 47.19 8.39 47.19 9.38 C 47.19 10.38 47.51 11.19 48.15 11.81 C 48.79 12.43 49.68 12.74 50.81 12.74 C 52.44 12.74 53.56 12.1 54.18 10.82 L 52.39 10.42 C 52.1 10.99 51.57 11.27 50.81 11.27 C 49.85 11.27 49.3 10.8 49.14 9.87 Z M 60.9 9.38 C 60.9 9.93 60.73 10.35 60.39 10.63 C 60.05 10.92 59.6 11.06 59.05 11.06 C 58.52 11.06 58.08 10.92 57.73 10.65 C 57.38 10.37 57.2 9.95 57.2 9.38 C 57.2 8.81 57.38 8.39 57.73 8.11 C 58.08 7.84 58.52 7.7 59.05 7.7 C 59.58 7.7 60.03 7.86 60.38 8.17 C 60.73 8.48 60.9 8.89 60.9 9.38 Z M 57.2 15.68 L 57.2 11.41 C 57.73 12.3 58.51 12.74 59.54 12.74 C 60.48 12.74 61.26 12.46 61.88 11.9 C 62.5 11.34 62.8 10.5 62.8 9.38 C 62.8 8.26 62.5 7.42 61.88 6.86 C 61.26 6.3 60.48 6.02 59.54 6.02 C 58.51 6.02 57.73 6.46 57.2 7.35 L 57.2 6.16 L 55.31 6.16 L 55.31 15.68 Z M 63.71 3.61 C 63.71 3.91 63.83 4.17 64.06 4.38 C 64.29 4.6 64.56 4.7 64.88 4.7 C 65.19 4.7 65.47 4.6 65.7 4.38 C 65.92 4.17 66.04 3.91 66.04 3.61 C 66.04 3.31 65.92 3.06 65.7 2.84 C 65.47 2.63 65.19 2.52 64.88 2.52 C 64.56 2.52 64.29 2.63 64.06 2.84 C 63.83 3.06 63.71 3.31 63.71 3.61 Z M 63.91 6.16 L 63.91 12.6 L 65.83 12.6 L 65.83 6.16 Z M 69.4 8.82 C 69.4 8.38 69.53 8.05 69.8 7.82 C 70.07 7.59 70.42 7.48 70.83 7.48 C 71.18 7.48 71.44 7.57 71.6 7.76 C 71.77 7.95 71.85 8.26 71.85 8.68 L 71.85 12.6 L 73.74 12.6 L 73.74 8.26 C 73.74 7.57 73.54 7.02 73.14 6.61 C 72.73 6.21 72.2 6.01 71.53 6.01 C 70.56 6.01 69.86 6.41 69.4 7.22 L 69.4 6.16 L 67.51 6.16 L 67.51 12.6 L 69.4 12.6 Z M 76.97 9.31 C 76.97 8.82 77.15 8.41 77.5 8.1 C 77.85 7.79 78.29 7.63 78.82 7.63 C 79.35 7.63 79.79 7.77 80.14 8.04 C 80.49 8.32 80.67 8.74 80.67 9.31 C 80.67 9.88 80.49 10.3 80.14 10.58 C 79.79 10.85 79.35 10.99 78.82 10.99 C 78.27 10.99 77.82 10.85 77.48 10.56 C 77.14 10.28 76.97 9.86 76.97 9.31 Z M 74.93 13.09 C 75.06 14 75.45 14.71 76.09 15.24 C 76.73 15.77 77.62 16.03 78.74 16.03 C 79.27 16.03 79.76 15.97 80.2 15.84 C 80.64 15.71 81.04 15.52 81.4 15.25 C 81.76 14.98 82.04 14.6 82.25 14.13 C 82.46 13.65 82.56 13.09 82.56 12.46 L 82.56 6.16 L 80.67 6.16 L 80.67 7.28 C 80.15 6.39 79.37 5.95 78.33 5.95 C 77.41 5.95 76.63 6.24 76.01 6.83 C 75.38 7.42 75.07 8.25 75.07 9.31 C 75.07 10.37 75.38 11.2 76.01 11.79 C 76.63 12.38 77.41 12.67 78.33 12.67 C 79.37 12.67 80.15 12.23 80.67 11.34 L 80.67 12.46 C 80.67 13.09 80.5 13.57 80.17 13.88 C 79.84 14.19 79.41 14.35 78.88 14.35 C 78.27 14.35 77.79 14.23 77.45 14 C 77.1 13.77 76.9 13.46 76.85 13.09 Z M 84.24 2.8 L 84.24 12.6 L 86.2 12.6 L 86.2 9.1 L 87.67 9.1 C 88.75 9.1 89.61 8.82 90.25 8.25 C 90.89 7.69 91.21 6.92 91.21 5.95 C 91.21 4.98 90.89 4.21 90.25 3.65 C 89.61 3.08 88.75 2.8 87.67 2.8 Z M 86.2 4.55 L 87.67 4.55 C 88.16 4.55 88.55 4.67 88.83 4.91 C 89.11 5.14 89.25 5.49 89.25 5.95 C 89.25 6.41 89.11 6.75 88.83 6.99 C 88.55 7.23 88.16 7.35 87.67 7.35 L 86.2 7.35 Z M 96.03 8.15 L 96.99 6.64 C 96.65 6.22 96.13 6.01 95.44 6.01 C 94.8 6.01 94.26 6.35 93.8 7.03 L 93.8 6.16 L 91.84 6.16 L 91.84 12.6 L 93.8 12.6 L 93.8 9.02 C 93.8 8.57 93.89 8.26 94.07 8.09 C 94.25 7.91 94.55 7.83 94.95 7.83 C 95.37 7.83 95.73 7.93 96.03 8.15 Z M 97.34 9.38 C 97.34 10.44 97.71 11.28 98.44 11.89 C 99.17 12.5 100.06 12.81 101.09 12.81 C 102.13 12.81 103.01 12.5 103.75 11.89 C 104.48 11.28 104.85 10.44 104.85 9.38 C 104.85 8.32 104.48 7.48 103.75 6.87 C 103.01 6.26 102.13 5.95 101.09 5.95 C 100.06 5.95 99.17 6.26 98.44 6.87 C 97.71 7.48 97.34 8.32 97.34 9.38 Z M 99.25 9.38 C 99.25 8.84 99.41 8.4 99.75 8.06 C 100.09 7.73 100.53 7.56 101.09 7.56 C 101.65 7.56 102.1 7.73 102.44 8.06 C 102.77 8.4 102.94 8.84 102.94 9.38 C 102.94 9.92 102.77 10.36 102.44 10.7 C 102.1 11.03 101.65 11.2 101.09 11.2 C 100.53 11.2 100.09 11.03 99.75 10.7 C 99.41 10.36 99.25 9.92 99.25 9.38 Z M 106.18 3.92 L 106.18 6.16 L 105.13 6.16 L 105.13 7.77 L 106.18 7.77 L 106.18 12.6 L 108.07 12.6 L 108.07 7.77 L 109.12 7.77 L 109.12 6.16 L 108.07 6.16 L 108.07 3.92 Z M 109.4 9.38 C 109.4 10.44 109.76 11.28 110.5 11.89 C 111.23 12.5 112.11 12.81 113.15 12.81 C 114.18 12.81 115.07 12.5 115.8 11.89 C 116.53 11.28 116.9 10.44 116.9 9.38 C 116.9 8.32 116.53 7.48 115.8 6.87 C 115.07 6.26 114.18 5.95 113.15 5.95 C 112.11 5.95 111.23 6.26 110.5 6.87 C 109.76 7.48 109.4 8.32 109.4 9.38 Z M 111.3 9.38 C 111.3 8.84 111.47 8.4 111.8 8.06 C 112.14 7.73 112.59 7.56 113.15 7.56 C 113.71 7.56 114.16 7.73 114.49 8.06 C 114.83 8.4 115 8.84 115 9.38 C 115 9.92 114.83 10.36 114.49 10.7 C 114.16 11.03 113.71 11.2 113.15 11.2 C 112.59 11.2 112.14 11.03 111.8 10.7 C 111.47 10.36 111.3 9.92 111.3 9.38 Z M 119.5 9.38 C 119.5 8.83 119.68 8.41 120.04 8.11 C 120.4 7.82 120.89 7.67 121.49 7.67 C 121.93 7.67 122.35 7.77 122.76 7.96 C 123.17 8.15 123.44 8.37 123.59 8.62 L 123.59 6.5 C 122.98 6.13 122.23 5.95 121.35 5.95 C 120.19 5.95 119.27 6.26 118.57 6.88 C 117.88 7.5 117.53 8.33 117.53 9.38 C 117.53 10.43 117.88 11.26 118.57 11.88 C 119.27 12.5 120.19 12.81 121.35 12.81 C 122.34 12.81 123.09 12.63 123.59 12.26 L 123.59 10.12 C 123.43 10.39 123.17 10.62 122.79 10.81 C 122.41 10.99 121.98 11.09 121.49 11.09 C 120.89 11.09 120.4 10.94 120.04 10.65 C 119.68 10.35 119.5 9.93 119.5 9.38 Z M 124.64 9.38 C 124.64 10.44 125.01 11.28 125.74 11.89 C 126.47 12.5 127.36 12.81 128.39 12.81 C 129.43 12.81 130.31 12.5 131.05 11.89 C 131.78 11.28 132.15 10.44 132.15 9.38 C 132.15 8.32 131.78 7.48 131.05 6.87 C 130.31 6.26 129.43 5.95 128.39 5.95 C 127.36 5.95 126.47 6.26 125.74 6.87 C 125.01 7.48 124.64 8.32 124.64 9.38 Z M 126.55 9.38 C 126.55 8.84 126.71 8.4 127.05 8.06 C 127.39 7.73 127.83 7.56 128.39 7.56 C 128.95 7.56 129.4 7.73 129.74 8.06 C 130.07 8.4 130.24 8.84 130.24 9.38 C 130.24 9.92 130.07 10.36 129.74 10.7 C 129.4 11.03 128.95 11.2 128.39 11.2 C 127.83 11.2 127.39 11.03 127.05 10.7 C 126.71 10.36 126.55 9.92 126.55 9.38 Z M 133.27 1.68 L 133.27 12.6 L 135.16 12.6 L 135.16 1.68 Z" stroke-linecap="round"/>
</g>
		<g transform="matrix(1.2657 0 0 1.2657 -291.9579 0.2261)">
<path style="stroke: none; stroke-width: 1; stroke-dasharray: none; stroke-linecap: butt; stroke-dashoffset: 0; stroke-linejoin: miter; stroke-miterlimit: 4; is-custom-font: none; font-file-url: none; fill: rgb(255,255,255); fill-rule: nonzero; opacity: 1;" transform=" translate(-44.875, -46.7795)" d="M 85.707 27.579 H 72.724 v -4.262 a 151.887 151.887 0 0 0 11.546 -2.973 l -2.774 -9.118 c -24.547 7.4 -49.455 7.4 -74.728 0 l -2.726 9.167 a 142.974 142.974 0 0 0 13.131 3.171 v 4.014 H 6.817 v 9.563 h 9.019 l -8.87 44.401 l 23.637 0.791 l 0.05 -45.192 h 28.543 l 0.05 45.192 l 23.736 -0.791 l -8.92 -44.401 h 11.646 v -9.562 z m -47.572 0 h -8.126 v -2.033 c 2.742 0.298 5.451 0.513 8.126 0.645 v 1.388 z m 21.704 0 h -8.82 v -1.388 c 2.94 -0.132 5.881 -0.38 8.82 -0.744 v 2.132 z" stroke-linecap="round"/>
</g>
</g>
</g>
</svg>